<svg xmlns="http://www.w3.org/2000/svg" height="24px" viewBox="0 -960 960 960" width="24px" fill="#0000ff"><path d="M 472 -112 q -74.7 0 -140.4 -28.35 T 217.3 -217.3 q -48.6 -48.6 -76.95 -114.3 T 112 -472 q 0 -74.7 28.35 -140.4 T 217.3 -726.7 q 48.6 -48.6 114.3 -76.95 T 472 -832 q 74.7 0 140.4 28.35 T 726.7 -726.7 q 48.6 48.6 76.95 114.3 T 832 -472 q 0 74.7 -28.35 140.4 T 726.7 -217.3 q -48.6 48.6 -114.3 76.95 T 472 -112 Z m 0 -72 q 120.6 0 204.3 -83.7 t 83.7 -204.3 q 0 -120.6 -83.7 -204.3 t -204.3 -83.7 q -120.6 0 -204.3 83.7 t -83.7 204.3 q 0 120.6 83.7 204.3 t 204.3 83.7 Z m 0 -288 Z"/></svg>